# xmcd
#
# Track frame offsets:
#	150
#	16055
#	26450
#	35862
#	49862
#	66380
#	78650
#	107050
#	120897
#	132197
#	141945
#	158130
#	177827
#	188485
#	199297
#	212637
#	222057
#	231382
#	250560
#	260225
#
# Disc length: 3696 seconds
#
# Revision: 0
# Processed by: cddbd v1.5.2PL0 Copyright (c) Steve Scherf et al.
# Submitted via: audiograbber 1.83.01
#
DISCID=1e0e6e14
DTITLE=Buffalo Springfield - Box Set [CD 3) - 1967-1968
DYEAR=2001
DGENRE=Country Rock
TTITLE0=Hung Upside Down
TTITLE1=Good Time Boy
TTITLE2=One More Sign [demo - mono]
TTITLE3=The Rent Is Always Due [demo - mono]
TTITLE4=Round And Round And Round [demo - mono]
TTITLE5=Old Laughing Lady [demo - mono]
TTITLE6=Broken Arrow
TTITLE7=Sad Memory
TTITLE8=On The Way Home [mono]
TTITLE9=Whatever Happened To Saturday Night? [remix - mono]
TTITLE10=Special Care
TTITLE11=Falcon Lake (Ash On The Floor) [remix]
TTITLE12=What A Day
TTITLE13=I Am A Child
TTITLE14=Questions
TTITLE15=Merry-Go-Round
TTITLE16=Uno Mundo
TTITLE17=Kind Woman
TTITLE18=It's So Hard To Wait
TTITLE19=Four Days Gone [demo]
EXTD=
EXTT0=
EXTT1=
EXTT2=
EXTT3=
EXTT4=
EXTT5=
EXTT6=
EXTT7=
EXTT8=
EXTT9=
EXTT10=
EXTT11=
EXTT12=
EXTT13=
EXTT14=
EXTT15=
EXTT16=
EXTT17=
EXTT18=
EXTT19=
PLAYORDER=
